<svg xmlns="http://www.w3.org/2000/svg" viewBox="0 0 1920 1080">
  <defs>
    <linearGradient id="sunset_bg" x1="0%" y1="0%" x2="100%" y2="100%">
      <stop offset="0%" stop-color="#140f33"/>
      <stop offset="46%" stop-color="#2c1f61"/>
      <stop offset="100%" stop-color="#ff8a2a"/>
    </linearGradient>
    <radialGradient id="sun_glow" cx="50%" cy="38%" r="38%">
      <stop offset="0%" stop-color="#ffe08a" stop-opacity="0.78"/>
      <stop offset="100%" stop-color="#ffd166" stop-opacity="0"/>
    </radialGradient>
    <linearGradient id="grid_fade" x1="0%" y1="65%" x2="0%" y2="100%">
      <stop offset="0%" stop-color="#22d3ee" stop-opacity="0"/>
      <stop offset="100%" stop-color="#22d3ee" stop-opacity="0.34"/>
    </linearGradient>
  </defs>

  <rect width="1920" height="1080" fill="url(#sunset_bg)"/>
  <circle cx="980" cy="390" r="300" fill="url(#sun_glow)"/>

  <g opacity="0.26" stroke="#fbbf24" stroke-width="2.6">
    <line x1="680" y1="250" x2="1280" y2="250"/>
    <line x1="640" y1="300" x2="1320" y2="300"/>
    <line x1="610" y1="350" x2="1350" y2="350"/>
    <line x1="590" y1="400" x2="1370" y2="400"/>
    <line x1="610" y1="450" x2="1350" y2="450"/>
    <line x1="640" y1="500" x2="1320" y2="500"/>
    <line x1="680" y1="550" x2="1280" y2="550"/>
  </g>

  <polygon points="0,700 300,580 560,650 860,560 1120,660 1390,580 1700,650 1920,610 1920,1080 0,1080" fill="#170d35" opacity="0.82"/>
  <polygon points="0,790 240,730 520,780 820,730 1090,810 1380,770 1680,830 1920,790 1920,1080 0,1080" fill="#0d0b24" opacity="0.9"/>

  <g>
    <path d="M960 640 L0 1080" stroke="url(#grid_fade)" stroke-width="1.8"/>
    <path d="M960 640 L240 1080" stroke="url(#grid_fade)" stroke-width="1.8"/>
    <path d="M960 640 L460 1080" stroke="url(#grid_fade)" stroke-width="1.8"/>
    <path d="M960 640 L640 1080" stroke="url(#grid_fade)" stroke-width="1.8"/>
    <path d="M960 640 L820 1080" stroke="url(#grid_fade)" stroke-width="1.8"/>
    <path d="M960 640 L1100 1080" stroke="url(#grid_fade)" stroke-width="1.8"/>
    <path d="M960 640 L1280 1080" stroke="url(#grid_fade)" stroke-width="1.8"/>
    <path d="M960 640 L1460 1080" stroke="url(#grid_fade)" stroke-width="1.8"/>
    <path d="M960 640 L1680 1080" stroke="url(#grid_fade)" stroke-width="1.8"/>
    <path d="M960 640 L1920 1080" stroke="url(#grid_fade)" stroke-width="1.8"/>
  </g>

  <g opacity="0.18" stroke="#22d3ee" stroke-width="1.4">
    <line x1="0" y1="780" x2="1920" y2="780"/>
    <line x1="0" y1="860" x2="1920" y2="860"/>
    <line x1="0" y1="940" x2="1920" y2="940"/>
    <line x1="0" y1="1020" x2="1920" y2="1020"/>
  </g>

  <g opacity="0.22">
    <circle cx="260" cy="220" r="4" fill="#fde68a"/>
    <circle cx="380" cy="180" r="3" fill="#fbbf24"/>
    <circle cx="1510" cy="200" r="4" fill="#fde68a"/>
    <circle cx="1640" cy="260" r="3" fill="#fbbf24"/>
  </g>
</svg>