<svg xmlns="http://www.w3.org/2000/svg" viewBox="0 0 1920 1080">
  <defs>
    <linearGradient id="intro_bg" x1="0%" y1="0%" x2="100%" y2="100%">
      <stop offset="0%" stop-color="#060d1f"/>
      <stop offset="45%" stop-color="#0b1c3f"/>
      <stop offset="100%" stop-color="#132f63"/>
    </linearGradient>
    <radialGradient id="intro_glow_a" cx="78%" cy="15%" r="52%">
      <stop offset="0%" stop-color="#22d3ee" stop-opacity="0.62"/>
      <stop offset="100%" stop-color="#22d3ee" stop-opacity="0"/>
    </radialGradient>
    <radialGradient id="intro_glow_b" cx="20%" cy="88%" r="46%">
      <stop offset="0%" stop-color="#f472b6" stop-opacity="0.45"/>
      <stop offset="100%" stop-color="#f472b6" stop-opacity="0"/>
    </radialGradient>
  </defs>

  <rect width="1920" height="1080" fill="url(#intro_bg)"/>
  <circle cx="1530" cy="180" r="590" fill="url(#intro_glow_a)"/>
  <circle cx="240" cy="980" r="520" fill="url(#intro_glow_b)"/>

  <g opacity="0.22" stroke="#7dd3fc" stroke-width="1">
    <line x1="0" y1="140" x2="1920" y2="140"/>
    <line x1="0" y1="320" x2="1920" y2="320"/>
    <line x1="0" y1="500" x2="1920" y2="500"/>
    <line x1="0" y1="680" x2="1920" y2="680"/>
    <line x1="0" y1="860" x2="1920" y2="860"/>
  </g>

  <path d="M-120 730 C 210 570, 520 570, 860 700 C 1200 830, 1500 840, 2040 660" fill="none" stroke="#67e8f9" stroke-width="5" opacity="0.65"/>
  <path d="M-120 850 C 200 730, 630 760, 1020 860 C 1320 940, 1670 950, 2040 870" fill="none" stroke="#f472b6" stroke-width="3.6" opacity="0.48"/>

  <rect x="90" y="90" width="700" height="390" rx="30" fill="#0f172a" opacity="0.64" stroke="#22d3ee" stroke-width="1.8"/>
  <circle cx="710" cy="410" r="110" fill="#22d3ee" opacity="0.62"/>

  <text x="175" y="220" font-size="98" font-weight="800" fill="#e2e8f0" letter-spacing="2">S</text>
  <text x="175" y="300" font-size="40" font-weight="700" fill="#94a3b8" letter-spacing="5">INTRO</text>

  <text x="960" y="1020" font-size="20" font-weight="600" text-anchor="middle" fill="#cbd5e1" opacity="0.62" letter-spacing="4">SCENE 01</text>
</svg>